# xmcd
#
# Track frame offsets:
#	150
#	9745
#	21673
#	32449
#	50446
#	60407
#	68234
#	77558
#	91247
#	100167
#	109929
#	119417
#	133417
#
# Disc length: 1986 seconds
#
# Revision: 0
# Processed by: cddbd v1.5.2PL0 Copyright (c) Steve Scherf et al.
# Submitted via: EZCDAudioConverter 1.3.4.1
#
DISCID=ad07c00d
DTITLE=La Nueva Banda De Santisteban - Sabor A Fresa
DYEAR=1900
DGENRE=
TTITLE0=Sabor A Fresa
TTITLE1=Brincadeira
TTITLE2=Zorongo
TTITLE3=Persecución
TTITLE4=The Suitcase
TTITLE5=Manías Se María
TTITLE6=No Te Acuerdas De Mí
TTITLE7=Tierra Mojada
TTITLE8=Un Día De Lluvia
TTITLE9=Nuestro Ayer
TTITLE10=Vuelve A Tu Ciudad
TTITLE11=Limón Y Sal
TTITLE12=Soledad
EXTD=
EXTT0=
EXTT1=
EXTT2=
EXTT3=
EXTT4=
EXTT5=
EXTT6=
EXTT7=
EXTT8=
EXTT9=
EXTT10=
EXTT11=
EXTT12=
PLAYORDER=
